<svg width="900" height="520" viewBox="0 0 900 520" fill="none" xmlns="http://www.w3.org/2000/svg">
  <path d="M90 112L126 92L146 128L109 150L90 112Z" fill="#F4C64F"/>
  <path d="M731 106L763 86L782 119L748 139L731 106Z" fill="#FF7A1A"/>
  <path d="M173 395L218 374L235 421L188 441L173 395Z" fill="#FF7A1A"/>
  <path d="M695 386L744 365L762 411L710 437L695 386Z" fill="#F4C64F"/>
  <path d="M429 48L408 91H435L413 140" stroke="#F4C64F" stroke-width="18" stroke-linecap="round" stroke-linejoin="round"/>
  <path d="M564 437L544 474H570L550 511" stroke="#FF7A1A" stroke-width="14" stroke-linecap="round" stroke-linejoin="round"/>
  <circle cx="286" cy="88" r="12" fill="#D72F20"/>
  <circle cx="620" cy="173" r="10" fill="#D72F20"/>
  <circle cx="325" cy="451" r="9" fill="#D72F20"/>
  <rect x="793" y="270" width="36" height="28" rx="6" fill="#FFF2C8" transform="rotate(16 793 270)"/>
  <rect x="56" y="266" width="30" height="30" rx="7" fill="#FFF2C8" transform="rotate(-18 56 266)"/>
</svg>
